<svg width="287" height="316" viewBox="0 0 287 316" fill="none" xmlns="http://www.w3.org/2000/svg">
<rect width="287" height="316" rx="8" fill="#1E1E1E"/>
<g filter="url(#filter0_d_307_631)">
<rect x="24" y="51" width="239" height="80" rx="8" fill="#D2C26A"/>
</g>
<rect x="24" y="20" width="23" height="11" rx="2" fill="#303030"/>
<rect x="233" y="23" width="30" height="6" rx="2" fill="#303030"/>
<rect x="197" y="23" width="30" height="6" rx="2" fill="#303030"/>
<rect x="161" y="23" width="30" height="6" rx="2" fill="#303030"/>
<rect x="125" y="23" width="30" height="6" rx="2" fill="#303030"/>
<rect x="24" y="151" width="71" height="11" rx="2" fill="#303030"/>
<rect x="108" y="151" width="71" height="11" rx="2" fill="#303030"/>
<rect x="192" y="151" width="71" height="11" rx="2" fill="#303030"/>
<rect x="24" y="174" width="239" height="135" rx="8" fill="#303030"/>
<rect y="131" width="287" height="186" fill="url(#paint0_linear_307_631)"/>
<defs>
<filter id="filter0_d_307_631" x="8" y="39" width="271" height="112" filterUnits="userSpaceOnUse" color-interpolation-filters="sRGB">
<feFlood flood-opacity="0" result="BackgroundImageFix"/>
<feColorMatrix in="SourceAlpha" type="matrix" values="0 0 0 0 0 0 0 0 0 0 0 0 0 0 0 0 0 0 127 0" result="hardAlpha"/>
<feOffset dy="4"/>
<feGaussianBlur stdDeviation="8"/>
<feComposite in2="hardAlpha" operator="out"/>
<feColorMatrix type="matrix" values="0 0 0 0 0.823529 0 0 0 0 0.760784 0 0 0 0 0.415686 0 0 0 0.37 0"/>
<feBlend mode="normal" in2="BackgroundImageFix" result="effect1_dropShadow_307_631"/>
<feBlend mode="normal" in="SourceGraphic" in2="effect1_dropShadow_307_631" result="shape"/>
</filter>
<linearGradient id="paint0_linear_307_631" x1="143.813" y1="120.551" x2="143.813" y2="287.742" gradientUnits="userSpaceOnUse">
<stop stop-color="#151515" stop-opacity="0"/>
<stop offset="0.728571" stop-color="#151515"/>
</linearGradient>
</defs>
</svg>
