<svg width="20" height="20" viewBox="0 0 20 20" xmlns="http://www.w3.org/2000/svg">
<path fill-rule="evenodd" clip-rule="evenodd" d="M10 1.25C5.1675 1.25 1.25 5.1675 1.25 10C1.25 14.8325 5.1675 18.75 10 18.75C14.8325 18.75 18.75 14.8325 18.75 10C18.75 5.1675 14.8325 1.25 10 1.25ZM14.0556 7.20062C13.9237 8.58437 13.3544 11.9419 13.0644 13.4913C12.9419 14.1469 12.7 14.3669 12.4662 14.3881C11.9581 14.435 11.5725 14.0525 11.08 13.73C10.31 13.225 9.875 12.9106 9.1275 12.4181C8.26375 11.8488 8.82375 11.5356 9.31625 11.0244C9.445 10.8906 11.6838 8.85438 11.7275 8.66938C11.7331 8.64625 11.7381 8.56 11.6869 8.51438C11.6356 8.46875 11.56 8.48438 11.5056 8.49688C11.4281 8.51438 10.1981 9.3275 7.815 10.9362C7.46562 11.1762 7.14937 11.2931 6.86625 11.2869C6.55375 11.28 5.95313 11.11 5.50625 10.965C4.95813 10.7869 4.5225 10.6925 4.56063 10.39C4.58063 10.2325 4.7975 10.0712 5.21187 9.90687C7.7625 8.79562 9.46375 8.06312 10.3144 7.70875C12.7444 6.69812 13.2494 6.5225 13.5781 6.51688C13.6506 6.51562 13.8125 6.53375 13.9175 6.61875C14.0062 6.69063 14.0306 6.7875 14.0419 6.85563C14.0537 6.92375 14.0681 7.07875 14.0562 7.2L14.0556 7.20062Z" />
</svg>
